<?xml version="1.0" encoding="utf-8"?>
<!-- Generator: Adobe Illustrator 15.1.0, SVG Export Plug-In . SVG Version: 6.00 Build 0)  -->
<!DOCTYPE svg PUBLIC "-//W3C//DTD SVG 1.1//EN" "http://www.w3.org/Graphics/SVG/1.1/DTD/svg11.dtd">
<svg version="1.1" id="Layer_1" xmlns="http://www.w3.org/2000/svg" xmlns:xlink="http://www.w3.org/1999/xlink" x="0px" y="0px"
	 width="525px" height="523px" viewBox="-6.5 -5.5 525 523" enable-background="new -6.5 -5.5 525 523" xml:space="preserve">
<rect x="201.5" y="96.5" fill="#050505" stroke="#000000" stroke-width="3" stroke-miterlimit="10" width="105" height="378"/>
<path fill="#F9ED19" stroke="#000000" stroke-width="7" stroke-miterlimit="10" d="M505.216,419.376l-191.983-384
	C302.4,13.696,280.256,0,256,0s-46.4,13.696-57.232,35.376l-191.984,384c-9.92,19.84-8.864,43.408,2.8,62.288
	C21.248,500.512,41.84,512,64.016,512h383.952c22.192,0,42.784-11.488,54.433-30.336
	C514.064,462.784,515.12,439.216,505.216,419.376z M287.968,432c0,8.848-7.151,16-16,16h-32c-8.848,0-16-7.152-16-16v-32
	c0-8.848,7.152-16,16-16h32c8.849,0,16,7.152,16,16V432z M287.968,304c0,8.848-7.151,16-16,16h-32c-8.848,0-16-7.152-16-16V144
	c0-8.832,7.152-16,16-16h32c8.849,0,16,7.168,16,16V304z"/>
</svg>
